# xmcd CD database file
#
# Track frame offsets:
#	150
#	24998
#	40846
#	61734
#	79149
#	97095
#	118505
#	137105
#	154841
#	179823
#	189481
#	222140
#
# Disc length: 3190 seconds
#
# Revision: 0
# Processed by: cddbd v1.5.2PL0 Copyright (c) Steve Scherf et al.
# Submitted via: CDex 1.50
#
DISCID=a30c740c
DTITLE=Unlimited Blues Time - Back 2 life
DYEAR=1992
DGENRE=Blues
TTITLE0=You gonna get burned.
TTITLE1=Blues Time.
TTITLE2=My babe.
TTITLE3=Six feet of ground.
TTITLE4=Shot from the saddle.
TTITLE5=Down in that bedroom.
TTITLE6=Don't let it fall.
TTITLE7=Let'go get stoned.
TTITLE8=You don't love me
TTITLE9=I wanna rock
TTITLE10=Ain't no sunshine
TTITLE11=Mercury blues
EXTD=YEAR: 1992
EXTT0=
EXTT1=
EXTT2=
EXTT3=
EXTT4=
EXTT5=
EXTT6=
EXTT7=
EXTT8=
EXTT9=
EXTT10=
EXTT11=
PLAYORDER=
